<svg width="42.18" height="29.7" viewBox="0 0 42.18 29.7" xmlns="http://www.w3.org/2000/svg"><g id="svgGroup" stroke-linecap="round" fill-rule="evenodd" font-size="9pt" stroke="#ffffff" stroke-width="0" fill="#ff5555" style="stroke:#ffffff;stroke-width:0;fill:#ff5555"><path d="M 16.41 23.31 L 16.62 23.34 L 16.71 23.34 A 0.859 0.859 0 0 0 17.323 23.087 A 1.128 1.128 0 0 0 17.34 23.07 A 0.202 0.202 0 0 1 17.484 23.01 A 0.265 0.265 0 0 1 17.49 23.01 Q 17.55 23.01 17.55 23.085 A 0.096 0.096 0 0 1 17.535 23.135 Q 17.503 23.188 17.404 23.248 A 0.927 0.927 0 0 1 17.4 23.25 A 1.8 1.8 0 0 1 17.248 23.366 Q 17.085 23.477 16.849 23.6 A 6.174 6.174 0 0 1 16.77 23.64 A 2.275 2.275 0 0 1 16.445 23.774 Q 16.207 23.85 15.99 23.85 A 5.122 5.122 0 0 1 15.293 23.806 Q 14.511 23.699 14.096 23.326 A 1.355 1.355 0 0 1 13.965 23.19 A 2.343 2.343 0 0 1 13.44 21.986 A 3.159 3.159 0 0 1 13.41 21.54 A 5.898 5.898 0 0 1 13.518 20.445 A 7.949 7.949 0 0 1 13.77 19.47 Q 14.13 18.36 14.625 17.355 A 123.355 123.355 0 0 1 14.862 16.876 Q 15.203 16.193 15.45 15.72 A 31.936 31.936 0 0 1 13.767 17.749 Q 11.976 19.721 10.366 20.67 A 8.062 8.062 0 0 1 9.81 20.97 A 4.207 4.207 0 0 1 9.064 21.25 A 3.169 3.169 0 0 1 8.25 21.36 A 2.649 2.649 0 0 1 7.408 21.233 A 2.146 2.146 0 0 1 6.375 20.49 A 3.213 3.213 0 0 1 5.701 18.541 A 3.996 3.996 0 0 1 5.7 18.45 L 5.7 18.15 Q 5.7 18 5.73 17.88 Q 5.933 16.543 6.545 14.981 A 19.085 19.085 0 0 1 6.585 14.88 A 48.391 48.391 0 0 1 7.939 11.803 A 53.001 53.001 0 0 1 8.04 11.595 Q 8.85 9.93 9.645 8.355 A 36.662 36.662 0 0 0 10.369 6.84 A 26.733 26.733 0 0 0 10.95 5.445 A 10.432 10.432 0 0 0 11.219 4.653 Q 11.46 3.829 11.46 3.21 A 2.797 2.797 0 0 0 11.413 2.676 Q 11.355 2.38 11.227 2.156 A 1.244 1.244 0 0 0 10.845 1.74 Q 10.23 1.32 9.24 1.32 A 6.604 6.604 0 0 0 8.244 1.4 Q 7.772 1.472 7.258 1.61 A 11.085 11.085 0 0 0 7.11 1.65 Q 5.94 1.98 4.77 2.475 A 22.006 22.006 0 0 0 3.525 3.046 A 17.44 17.44 0 0 0 2.655 3.51 A 20.391 20.391 0 0 0 2.104 3.836 Q 1.543 4.18 1.173 4.468 A 5.155 5.155 0 0 0 1.17 4.47 A 0.805 0.805 0 0 1 0.987 4.59 A 0.625 0.625 0 0 1 0.72 4.65 A 0.47 0.47 0 0 1 0.405 4.527 Q 0.336 4.466 0.273 4.377 A 1.221 1.221 0 0 1 0.21 4.275 A 1.653 1.653 0 0 1 0.01 3.625 A 2.049 2.049 0 0 1 0 3.42 Q 0 3.03 0.15 2.655 Q 0.3 2.28 0.6 2.04 Q 1.169 1.579 2.301 1.156 A 13.488 13.488 0 0 1 2.55 1.065 A 17.421 17.421 0 0 1 4.135 0.594 A 22.56 22.56 0 0 1 5.505 0.3 A 17.894 17.894 0 0 1 8.309 0.005 A 16.374 16.374 0 0 1 8.7 0 A 12.135 12.135 0 0 1 10.19 0.088 A 9.571 9.571 0 0 1 11.28 0.285 A 4.994 4.994 0 0 1 12.218 0.609 A 3.63 3.63 0 0 1 13.17 1.245 A 2.237 2.237 0 0 1 13.856 2.584 A 3.176 3.176 0 0 1 13.89 3.06 A 3.328 3.328 0 0 1 13.862 3.484 A 4.346 4.346 0 0 1 13.8 3.84 A 6.159 6.159 0 0 1 13.646 4.409 Q 13.433 5.083 13.02 5.97 A 46.223 46.223 0 0 1 12.364 7.32 A 62.394 62.394 0 0 1 11.595 8.79 Q 10.77 10.32 9.9 11.895 A 87.732 87.732 0 0 0 8.775 13.997 A 74.166 74.166 0 0 0 8.31 14.91 Q 7.59 16.35 7.23 17.46 A 5.73 5.73 0 0 0 6.998 18.346 A 4.459 4.459 0 0 0 6.93 19.11 Q 6.93 19.74 7.171 20.175 A 1.586 1.586 0 0 0 7.245 20.295 A 1.025 1.025 0 0 0 7.957 20.739 A 1.597 1.597 0 0 0 8.22 20.76 A 2.175 2.175 0 0 0 8.733 20.693 Q 9.217 20.575 9.82 20.251 A 7.797 7.797 0 0 0 9.93 20.19 Q 11.279 19.459 12.629 18.096 A 16.939 16.939 0 0 0 12.81 17.91 A 32.022 32.022 0 0 0 14.762 15.67 A 37.967 37.967 0 0 0 15.63 14.535 Q 17.01 12.66 18.285 10.71 A 318.38 318.38 0 0 0 19.519 8.809 A 267.929 267.929 0 0 0 20.67 7.005 A 139.522 139.522 0 0 1 21.465 5.763 Q 22.095 4.789 22.62 4.02 Q 22.982 3.513 23.392 3.259 A 1.824 1.824 0 0 1 23.595 3.15 A 3.358 3.358 0 0 1 23.94 3.014 Q 24.254 2.91 24.51 2.91 A 1.522 1.522 0 0 1 24.696 2.921 Q 24.916 2.948 25.035 3.045 A 0.281 0.281 0 0 1 25.076 3.086 Q 25.173 3.207 25.02 3.36 Q 24.633 3.748 24.02 4.551 A 34.472 34.472 0 0 0 23.61 5.1 Q 22.837 6.157 21.919 7.547 A 92.786 92.786 0 0 0 21.615 8.01 A 62.336 62.336 0 0 0 19.981 10.665 A 71.72 71.72 0 0 0 19.44 11.61 A 73.559 73.559 0 0 0 17.474 15.347 A 68.569 68.569 0 0 0 17.445 15.405 Q 16.53 17.28 15.975 18.915 A 13.845 13.845 0 0 0 15.682 19.886 Q 15.551 20.391 15.486 20.835 A 5.665 5.665 0 0 0 15.42 21.66 Q 15.42 22.265 15.622 22.706 A 1.839 1.839 0 0 0 15.66 22.785 A 1.023 1.023 0 0 0 15.897 23.094 Q 16.091 23.262 16.37 23.305 A 1.185 1.185 0 0 0 16.41 23.31 Z M 18.9 28.59 A 5.563 5.563 0 0 0 19.641 28.538 A 7.289 7.289 0 0 0 20.265 28.425 A 9.62 9.62 0 0 0 21.563 28.033 A 10.737 10.737 0 0 0 21.75 27.96 A 16.199 16.199 0 0 0 23.699 26.968 Q 24.585 26.444 25.506 25.771 A 26.754 26.754 0 0 0 25.77 25.575 A 36.776 36.776 0 0 0 28.389 23.407 A 43.822 43.822 0 0 0 29.955 21.915 Q 32.04 19.83 33.885 17.505 A 48.98 48.98 0 0 0 36.616 13.717 A 43.687 43.687 0 0 0 37.17 12.84 Q 38.61 10.5 39.435 8.4 A 14.449 14.449 0 0 0 39.93 6.927 Q 40.26 5.716 40.26 4.71 Q 40.26 3.384 39.674 2.509 A 2.987 2.987 0 0 0 39.54 2.325 Q 38.852 1.451 37.454 1.412 A 4.749 4.749 0 0 0 37.32 1.41 Q 36.553 1.41 35.571 1.68 A 11.514 11.514 0 0 0 34.98 1.86 Q 32.25 2.79 30.195 4.605 Q 28.14 6.42 26.88 8.835 Q 25.62 11.25 25.26 13.98 Q 26.67 13.29 28.125 12.885 A 10.829 10.829 0 0 1 30.526 12.491 A 9.905 9.905 0 0 1 30.99 12.48 L 31.365 12.48 A 2.307 2.307 0 0 1 31.695 12.503 A 2.099 2.099 0 0 1 31.74 12.51 A 3.689 3.689 0 0 1 32.403 12.617 A 2.695 2.695 0 0 1 33.12 12.915 A 1.674 1.674 0 0 1 33.55 13.28 A 1.453 1.453 0 0 1 33.84 13.86 A 0.864 0.864 0 0 1 33.869 13.924 Q 33.9 14.001 33.9 14.055 L 33.9 14.19 Q 33.9 14.277 33.844 14.28 A 0.076 0.076 0 0 1 33.84 14.28 A 0.101 0.101 0 0 1 33.823 14.278 Q 33.795 14.273 33.746 14.254 A 1.086 1.086 0 0 1 33.735 14.25 A 1.008 1.008 0 0 0 33.678 14.23 Q 33.648 14.22 33.614 14.21 A 2.343 2.343 0 0 0 33.54 14.19 Q 33.42 14.16 33.27 14.145 A 3.013 3.013 0 0 0 32.97 14.13 Q 31.56 14.13 29.505 15.045 A 29.751 29.751 0 0 0 26.528 16.585 A 34.855 34.855 0 0 0 25.35 17.31 A 2.746 2.746 0 0 0 25.487 17.584 Q 25.566 17.72 25.651 17.824 A 1.139 1.139 0 0 0 25.83 18 Q 26.1 18.21 26.4 18.24 Q 26.582 18.24 26.606 18.376 A 0.255 0.255 0 0 1 26.61 18.42 A 0.115 0.115 0 0 1 26.543 18.525 Q 26.485 18.557 26.379 18.566 A 1.127 1.127 0 0 1 26.28 18.57 A 1.27 1.27 0 0 1 26.198 18.567 Q 26.106 18.561 25.983 18.543 A 4.166 4.166 0 0 1 25.965 18.54 A 5.293 5.293 0 0 1 25.808 18.513 Q 25.738 18.501 25.661 18.485 A 10.234 10.234 0 0 1 25.5 18.45 A 1.759 1.759 0 0 1 24.696 17.963 A 2.222 2.222 0 0 1 24.57 17.82 Q 22.74 19.05 20.97 20.46 Q 19.2 21.87 17.85 23.61 Q 17.293 24.346 16.959 24.965 A 5.975 5.975 0 0 0 16.755 25.38 A 4.935 4.935 0 0 0 16.552 25.918 Q 16.468 26.19 16.433 26.436 A 2.361 2.361 0 0 0 16.41 26.76 A 1.932 1.932 0 0 0 16.49 27.331 A 1.44 1.44 0 0 0 17.115 28.14 Q 17.768 28.557 18.744 28.588 A 4.991 4.991 0 0 0 18.9 28.59 Z M 16.894 29.596 A 5.231 5.231 0 0 0 17.97 29.7 Q 18.93 29.7 20.1 29.385 A 10.266 10.266 0 0 0 20.119 29.38 Q 21.281 29.065 22.62 28.41 A 23.052 23.052 0 0 0 24.668 27.246 A 29.967 29.967 0 0 0 27.045 25.56 A 43.375 43.375 0 0 0 27.892 24.881 A 48.675 48.675 0 0 0 31.5 21.585 Q 33.69 19.38 35.625 16.965 Q 37.56 14.55 39.03 12.18 Q 40.5 9.81 41.34 7.725 Q 41.839 6.487 42.041 5.434 A 7.183 7.183 0 0 0 42.18 4.08 Q 42.18 3.9 42.165 3.72 A 3.367 3.367 0 0 0 42.149 3.568 A 2.625 2.625 0 0 0 42.12 3.39 A 4.965 4.965 0 0 0 41.889 2.52 A 3.459 3.459 0 0 0 40.62 0.84 A 4.523 4.523 0 0 0 39.474 0.259 A 5.086 5.086 0 0 0 37.83 0 Q 36.15 0 34.5 0.84 Q 32.67 1.77 30.915 3.27 Q 29.16 4.77 27.705 6.645 Q 26.25 8.52 25.29 10.56 Q 24.33 12.6 24.06 14.61 A 25.635 25.635 0 0 0 22.951 15.282 A 30.381 30.381 0 0 0 21.075 16.59 Q 19.56 17.73 18.24 19.05 Q 16.92 20.37 15.99 21.81 A 15.95 15.95 0 0 0 15.886 21.972 Q 15.528 22.537 15.254 23.076 A 9.691 9.691 0 0 0 14.745 24.255 A 9.203 9.203 0 0 0 14.696 24.4 Q 14.528 24.904 14.44 25.37 A 5.36 5.36 0 0 0 14.34 26.37 A 4.247 4.247 0 0 0 14.393 27.053 A 2.978 2.978 0 0 0 15.3 28.8 Q 15.934 29.394 16.894 29.596 Z" vector-effect="non-scaling-stroke"/></g></svg>